<?xml version="1.0" encoding="utf-8"?>
<svg version="1.1" xmlns:xlink="http://www.w3.org/1999/xlink" width="456px" height="326px" xmlns="http://www.w3.org/2000/svg">
  <g transform="matrix(1 0 0 1 -816 -39 )">
    <path d="M 816 39  L 1272 39  L 1272 365  L 816 365  L 816 39  " fill-rule="nonzero" fill="#cccccc" stroke="none" />
    <path d="M 839 62  L 1249 62  L 1249 342  L 839 342  L 839 62  " fill-rule="nonzero" fill="#ffffff" stroke="none" />
    <path d="M 1077.57 136.8  C 1063.878 136.8  1053.12 126.042  1053.12 112.35  C 1053.12 98.658  1063.878 87.9  1077.57 87.9  C 1091.262 87.9  1102.02 98.658  1102.02 112.35  C 1102.02 126.042  1091.262 136.8  1077.57 136.8  " fill-rule="nonzero" fill="#cccccc" stroke="none" />
    <path d="M 847 334  L 847 188.8  L 945.5 122.8  L 1083.4 220.757894736842  L 1162.2 162.4  L 1241 220.757894736842  L 1241 334  L 847 334  " fill-rule="nonzero" fill="#169bd5" stroke="none" />
  </g>
</svg>