<?xml version="1.0" encoding="utf-8"?>
<svg version="1.1" xmlns:xlink="http://www.w3.org/1999/xlink" width="12px" height="12px" viewBox="263 63.5  12 12" xmlns="http://www.w3.org/2000/svg">
  <path d="M 269 63.5  C 272.36 63.5  275 66.14  275 69.5  C 275 72.86  272.36 75.5  269 75.5  C 265.64 75.5  263 72.86  263 69.5  C 263 66.14  265.64 63.5  269 63.5  Z " fill-rule="nonzero" fill="#ffffff" stroke="none" />
  <path d="M 269 64  C 272.08 64  274.5 66.42  274.5 69.5  C 274.5 72.58  272.08 75  269 75  C 265.92 75  263.5 72.58  263.5 69.5  C 263.5 66.42  265.92 64  269 64  Z " stroke-width="1" stroke="#797979" fill="none" />
  <path d="M 269 72.5  C 267.32 72.5  266 71.18  266 69.5  C 266 67.82  267.32 66.5  269 66.5  C 270.68 66.5  272 67.82  272 69.5  C 272 71.18  270.68 72.5  269 72.5  " fill-rule="nonzero" fill="#797979" stroke="none" />
</svg>